<svg width="76" height="77" viewBox="0 0 76 77" fill="none" xmlns="http://www.w3.org/2000/svg">
<path fill-rule="evenodd" clip-rule="evenodd" d="M50.6667 47.8823C53.1862 47.8823 55.6026 48.8832 57.3842 50.6648C59.1658 52.4464 60.1667 54.8627 60.1667 57.3823C60.1667 59.9019 59.1658 62.3182 57.3842 64.0998C55.6026 65.8814 53.1862 66.8823 50.6667 66.8823C48.1471 66.8823 45.7307 65.8814 43.9492 64.0998C42.1676 62.3182 41.1667 59.9019 41.1667 57.3823C41.1667 54.8627 42.1676 52.4464 43.9492 50.6648C45.7307 48.8832 48.1471 47.8823 50.6667 47.8823ZM22.1667 35.2156C25.5261 35.2156 28.7479 36.5501 31.1234 38.9256C33.4988 41.3011 34.8333 44.5229 34.8333 47.8823C34.8333 51.2417 33.4988 54.4635 31.1234 56.839C28.7479 59.2144 25.5261 60.549 22.1667 60.549C18.8073 60.549 15.5854 59.2144 13.21 56.839C10.8345 54.4635 9.5 51.2417 9.5 47.8823C9.5 44.5229 10.8345 41.3011 13.21 38.9256C15.5854 36.5501 18.8073 35.2156 22.1667 35.2156ZM50.6667 54.2156C49.8268 54.2156 49.0214 54.5493 48.4275 55.1431C47.8336 55.737 47.5 56.5424 47.5 57.3823C47.5 58.2221 47.8336 59.0276 48.4275 59.6215C49.0214 60.2153 49.8268 60.549 50.6667 60.549C51.5065 60.549 52.312 60.2153 52.9058 59.6215C53.4997 59.0276 53.8333 58.2221 53.8333 57.3823C53.8333 56.5424 53.4997 55.737 52.9058 55.1431C52.312 54.5493 51.5065 54.2156 50.6667 54.2156ZM22.1667 41.549C20.487 41.549 18.8761 42.2162 17.6883 43.404C16.5006 44.5917 15.8333 46.2026 15.8333 47.8823C15.8333 49.562 16.5006 51.1729 17.6883 52.3606C18.8761 53.5484 20.487 54.2156 22.1667 54.2156C23.8464 54.2156 25.4573 53.5484 26.645 52.3606C27.8327 51.1729 28.5 49.562 28.5 47.8823C28.5 46.2026 27.8327 44.5917 26.645 43.404C25.4573 42.2162 23.8464 41.549 22.1667 41.549ZM50.6667 9.88229C54.8659 9.88229 58.8932 11.5504 61.8625 14.5198C64.8319 17.4891 66.5 21.5164 66.5 25.7156C66.5 29.9149 64.8319 33.9422 61.8625 36.9115C58.8932 39.8808 54.8659 41.549 50.6667 41.549C46.4674 41.549 42.4401 39.8808 39.4708 36.9115C36.5015 33.9422 34.8333 29.9149 34.8333 25.7156C34.8333 21.5164 36.5015 17.4891 39.4708 14.5198C42.4401 11.5504 46.4674 9.88229 50.6667 9.88229ZM50.6667 16.2156C48.1471 16.2156 45.7307 17.2165 43.9492 18.9981C42.1676 20.7797 41.1667 23.1961 41.1667 25.7156C41.1667 28.2352 42.1676 30.6515 43.9492 32.4331C45.7307 34.2147 48.1471 35.2156 50.6667 35.2156C53.1862 35.2156 55.6026 34.2147 57.3842 32.4331C59.1658 30.6515 60.1667 28.2352 60.1667 25.7156C60.1667 23.1961 59.1658 20.7797 57.3842 18.9981C55.6026 17.2165 53.1862 16.2156 50.6667 16.2156Z" fill="#FFEA00" fill-opacity="0.972549"/>
</svg>
