<svg width="182" height="37" viewBox="0 0 182 37" fill="none" xmlns="http://www.w3.org/2000/svg">
<path d="M29.216 3.91429C31.392 3.91429 33.28 4.25029 34.88 4.92229C36.512 5.56229 37.744 6.45829 38.576 7.61029C39.44 8.73029 39.872 10.0263 39.872 11.4983C39.872 12.3303 39.76 13.0983 39.536 13.8023C38.608 17.0343 35.936 19.0823 31.52 19.9463C33.056 20.3943 34.272 21.1463 35.168 22.2023C36.064 23.2263 36.512 24.5063 36.512 26.0423C36.512 26.7463 36.384 27.5783 36.128 28.5383C35.424 31.0343 34 32.8903 31.856 34.1063C29.744 35.2903 26.736 35.8823 22.832 35.8823H2.864C2.192 35.8823 1.68 35.7703 1.328 35.5463C0.944 35.3223 0.752 35.0183 0.752 34.6343C0.752 34.4423 0.8 34.2343 0.896 34.0103C1.024 33.6583 1.232 33.3863 1.52 33.1943C1.808 33.0023 1.984 32.8903 2.048 32.8583C2.56 32.5383 2.976 32.2183 3.296 31.8983C3.616 31.5463 3.888 30.9863 4.112 30.2183L9.968 9.53029C10.096 9.11429 10.16 8.71429 10.16 8.33029C10.16 7.97829 10.096 7.69029 9.968 7.46629C9.872 7.21029 9.728 6.92229 9.536 6.60229C9.248 6.18629 9.104 5.85029 9.104 5.59429C9.104 5.49829 9.136 5.32229 9.2 5.06629C9.328 4.65029 9.6 4.36229 10.016 4.20229C10.464 4.01029 11.136 3.91429 12.032 3.91429H29.216ZM27.056 12.6983C27.28 11.9943 27.392 11.3383 27.392 10.7303C27.392 9.06629 26.448 8.23429 24.56 8.23429H22.4L19.856 17.2103H21.968C23.312 17.2103 24.368 16.8903 25.136 16.2503C25.936 15.5783 26.576 14.3943 27.056 12.6983ZM23.552 26.8103C23.776 26.0423 23.888 25.3383 23.888 24.6983C23.888 22.9703 22.896 22.1063 20.912 22.1063H18.512L15.776 31.5623H18.224C19.6 31.5623 20.704 31.2263 21.536 30.5543C22.368 29.8503 23.04 28.6023 23.552 26.8103ZM67.0276 29.2583C66.9636 29.5143 66.9316 29.7063 66.9316 29.8343C66.9316 30.0583 66.9796 30.2343 67.0756 30.3623C67.2036 30.4903 67.3636 30.5543 67.5556 30.5543C67.9396 30.5543 68.2596 30.3943 68.5156 30.0743C68.8036 29.7223 68.9956 29.5463 69.0916 29.5463C69.2516 29.5463 69.3796 29.6583 69.4756 29.8823C69.6036 30.0743 69.6676 30.3143 69.6676 30.6023C69.6996 31.4983 69.3796 32.3943 68.7076 33.2903C68.0356 34.1543 67.0916 34.8743 65.8756 35.4503C64.6596 36.0263 63.2996 36.3143 61.7956 36.3143C59.9076 36.3143 58.4036 35.9303 57.2836 35.1623C56.1636 34.3943 55.4436 33.3863 55.1236 32.1383C53.9716 33.4183 52.6916 34.3943 51.2836 35.0663C49.9076 35.7063 48.4996 36.0263 47.0596 36.0263C44.8196 36.0263 42.9316 35.4823 41.3956 34.3943C39.8916 33.2743 39.1396 31.7223 39.1396 29.7383C39.1396 28.8423 39.2996 27.9143 39.6196 26.9543L42.6916 16.9223C42.7876 16.6343 42.8356 16.3943 42.8356 16.2023C42.8356 15.8503 42.7556 15.5783 42.5956 15.3863C42.4356 15.1623 42.1956 14.9383 41.8756 14.7143C41.5556 14.4583 41.3316 14.2343 41.2036 14.0423C41.0756 13.8503 41.0596 13.5943 41.1556 13.2743C41.3476 12.5383 42.3556 11.8983 44.1796 11.3543C46.0036 10.7783 47.9076 10.4903 49.8916 10.4903C51.7476 10.4903 53.1076 10.8423 53.9716 11.5463C54.8356 12.2503 55.2676 13.2103 55.2676 14.4263C55.2676 15.1623 55.1556 15.8663 54.9316 16.5383L51.9076 26.5223C51.7796 26.8743 51.7156 27.2103 51.7156 27.5303C51.7156 27.9783 51.8436 28.3143 52.0996 28.5383C52.3556 28.7623 52.6916 28.8743 53.1076 28.8743C53.7156 28.8743 54.2116 28.6983 54.5956 28.3463C54.9796 27.9943 55.3636 27.4023 55.7476 26.5703L58.6756 16.9223C58.7716 16.6343 58.8196 16.3943 58.8196 16.2023C58.8196 15.8503 58.7396 15.5783 58.5796 15.3863C58.4196 15.1623 58.1956 14.9383 57.9076 14.7143C57.5876 14.4583 57.3636 14.2343 57.2356 14.0423C57.1076 13.8503 57.0916 13.5943 57.1876 13.2743C57.3476 12.5383 58.3396 11.8983 60.1636 11.3543C61.9876 10.7783 63.8916 10.4903 65.8756 10.4903C67.7316 10.4903 69.0916 10.8423 69.9556 11.5463C70.8516 12.2503 71.2996 13.1943 71.2996 14.3783C71.2996 14.9863 71.1716 15.7063 70.9156 16.5383L67.0276 29.2583ZM95.9019 10.2983C98.2699 10.2983 100.158 11.1463 101.566 12.8423C103.006 14.5383 103.726 16.7783 103.726 19.5623C103.726 21.0023 103.55 22.4103 103.198 23.7863C102.174 27.9143 100.414 31.0343 97.9179 33.1463C95.4539 35.2583 92.6059 36.3143 89.3739 36.3143C87.5499 36.3143 85.9659 36.0103 84.6219 35.4023C83.3099 34.7623 82.2539 33.8663 81.4539 32.7143L79.7259 34.2023C79.0539 34.7783 78.3979 35.2103 77.7579 35.4983C77.1179 35.7543 76.3819 35.8823 75.5499 35.8823H73.4379C72.6379 35.8823 72.0139 35.7223 71.5659 35.4023C71.1499 35.0503 70.9419 34.5543 70.9419 33.9143C70.9419 33.6263 70.9899 33.2903 71.0859 32.9063L79.1019 6.84229C79.1979 6.55429 79.2459 6.31429 79.2459 6.12229C79.2459 5.57829 78.9099 5.06629 78.2379 4.58629C77.9179 4.29829 77.6939 4.07429 77.5659 3.91429C77.4379 3.72229 77.4219 3.48229 77.5179 3.19429C77.7419 2.45829 78.7499 1.81829 80.5419 1.27429C82.3659 0.698293 84.2699 0.410293 86.2539 0.410293C88.1099 0.410293 89.4699 0.778293 90.3339 1.51429C91.2299 2.21829 91.6779 3.17829 91.6779 4.39429C91.6779 5.06629 91.5659 5.73829 91.3419 6.41029L89.3259 12.9383C91.1819 11.1783 93.3739 10.2983 95.9019 10.2983ZM90.4779 23.4983C91.1179 21.3223 91.4379 19.5623 91.4379 18.2183C91.4379 16.7463 91.0059 16.0103 90.1419 16.0103C89.3739 16.0103 88.6539 16.4103 87.9819 17.2103L84.8619 27.3863L84.5739 28.2983C84.4139 28.7783 84.3339 29.2743 84.3339 29.7863C84.3339 30.9063 84.8619 31.4663 85.9179 31.4663C86.6859 31.4663 87.4219 30.9063 88.1259 29.7863C88.8299 28.6663 89.6139 26.5703 90.4779 23.4983ZM128.386 10.2983C130.754 10.2983 132.642 11.1463 134.05 12.8423C135.49 14.5383 136.21 16.7783 136.21 19.5623C136.21 21.0023 136.034 22.4103 135.682 23.7863C134.658 27.9143 132.898 31.0343 130.402 33.1463C127.938 35.2583 125.09 36.3143 121.858 36.3143C120.034 36.3143 118.45 36.0103 117.106 35.4023C115.794 34.7623 114.738 33.8663 113.938 32.7143L112.21 34.2023C111.538 34.7783 110.882 35.2103 110.242 35.4983C109.602 35.7543 108.866 35.8823 108.034 35.8823H105.922C105.122 35.8823 104.498 35.7223 104.05 35.4023C103.634 35.0503 103.426 34.5543 103.426 33.9143C103.426 33.6263 103.474 33.2903 103.57 32.9063L111.586 6.84229C111.682 6.55429 111.73 6.31429 111.73 6.12229C111.73 5.57829 111.394 5.06629 110.722 4.58629C110.402 4.29829 110.178 4.07429 110.05 3.91429C109.922 3.72229 109.906 3.48229 110.002 3.19429C110.226 2.45829 111.234 1.81829 113.026 1.27429C114.85 0.698293 116.754 0.410293 118.738 0.410293C120.594 0.410293 121.954 0.778293 122.818 1.51429C123.714 2.21829 124.162 3.17829 124.162 4.39429C124.162 5.06629 124.05 5.73829 123.826 6.41029L121.81 12.9383C123.666 11.1783 125.858 10.2983 128.386 10.2983ZM122.962 23.4983C123.602 21.3223 123.922 19.5623 123.922 18.2183C123.922 16.7463 123.49 16.0103 122.626 16.0103C121.858 16.0103 121.138 16.4103 120.466 17.2103L117.346 27.3863L117.058 28.2983C116.898 28.7783 116.818 29.2743 116.818 29.7863C116.818 30.9063 117.346 31.4663 118.402 31.4663C119.17 31.4663 119.906 30.9063 120.61 29.7863C121.314 28.6663 122.098 26.5703 122.962 23.4983ZM151.703 0.410293C153.559 0.410293 154.919 0.762293 155.783 1.46629C156.679 2.17029 157.127 3.13029 157.127 4.34629C157.127 5.05029 157.015 5.73829 156.791 6.41029L149.255 30.8903C149.159 31.2743 149.111 31.6103 149.111 31.8983C149.111 32.3143 149.191 32.6503 149.351 32.9063C149.511 33.1303 149.735 33.3543 150.023 33.5783C150.247 33.8023 150.407 33.9943 150.503 34.1543C150.599 34.2823 150.615 34.4583 150.551 34.6823C150.391 35.0983 150.071 35.4023 149.591 35.5943C149.111 35.7863 148.375 35.8823 147.383 35.8823H136.439C135.607 35.8823 134.999 35.7543 134.615 35.4983C134.231 35.2103 134.103 34.8423 134.231 34.3943C134.359 34.0103 134.695 33.6743 135.239 33.3863C135.719 33.1303 136.119 32.8263 136.439 32.4743C136.759 32.1223 137.031 31.5623 137.255 30.7943L144.551 6.84229C144.647 6.55429 144.695 6.31429 144.695 6.12229C144.695 5.77029 144.599 5.48229 144.407 5.25829C144.247 5.03429 144.023 4.81029 143.735 4.58629C143.415 4.33029 143.175 4.10629 143.015 3.91429C142.887 3.72229 142.871 3.46629 142.967 3.14629C143.159 2.41029 144.167 1.77029 145.991 1.22629C147.815 0.682292 149.719 0.410293 151.703 0.410293ZM170.241 10.2503C174.305 10.2503 177.249 10.9063 179.073 12.2183C180.897 13.4983 181.809 15.1463 181.809 17.1623C181.809 17.7703 181.745 18.3303 181.617 18.8423C181.137 20.9543 179.793 22.4743 177.585 23.4023C175.409 24.2983 172.833 24.7463 169.857 24.7463C168.353 24.7463 166.945 24.6503 165.633 24.4583C165.601 26.1223 166.049 27.2903 166.977 27.9623C167.905 28.6343 169.201 28.9703 170.865 28.9703C171.633 28.9703 172.369 28.8903 173.073 28.7303C173.777 28.5383 174.673 28.2663 175.761 27.9143C176.657 27.5943 177.265 27.4343 177.585 27.4343C177.937 27.4343 178.113 27.6423 178.113 28.0583C178.145 29.1783 177.729 30.3623 176.865 31.6103C176.001 32.8263 174.721 33.8663 173.025 34.7303C171.329 35.5943 169.281 36.0263 166.881 36.0263C163.329 36.0263 160.417 35.1303 158.145 33.3383C155.873 31.5463 154.737 28.9383 154.737 25.5143C154.737 24.5543 154.865 23.4343 155.121 22.1543C155.921 18.2183 157.665 15.2583 160.353 13.2743C163.073 11.2583 166.369 10.2503 170.241 10.2503ZM165.969 21.5783C166.097 21.6103 166.273 21.6263 166.497 21.6263C167.841 21.6263 168.865 21.0023 169.569 19.7543C170.273 18.5063 170.609 17.1143 170.577 15.5783C170.545 14.6823 170.289 14.2343 169.809 14.2343C169.457 14.2343 169.041 14.5223 168.561 15.0983C168.081 15.6423 167.601 16.4743 167.121 17.5943C166.673 18.7143 166.289 20.0423 165.969 21.5783Z" fill="#FFEA00" fill-opacity="0.972549"/>
</svg>
